<svg id="Camada_3" data-name="Camada 3" xmlns="http://www.w3.org/2000/svg" viewBox="0 0 813.63 907.76"><defs><style>.cls-1,.cls-2{fill:none;stroke:#fff;stroke-linecap:square;stroke-width:10px;}.cls-1,.cls-3,.cls-4{stroke-miterlimit:10;}.cls-2{stroke-linejoin:round;}.cls-3{fill:#61b250;stroke:#63b352;}.cls-4{fill:#58a24b;stroke:#56a14a;}</style></defs><title>logo oficial groot</title><path class="cls-1" d="M637.44,849.12c39.36-17.46,64.58-79.84,87.49-162.54" transform="translate(-105.22 -59.44)"/><path class="cls-1" d="M675.48,703.92c13.92-60.12,106.86-166.68-2.58-258l2,51V711.84q3.78,81.18,48.6,130.44l3.24-208.68c-3.36-43.68-37.32-84.12-50.76-126.84" transform="translate(-105.22 -59.44)"/><path class="cls-1" d="M747.36,896.64c-16.14-13.5-20.86-32.91-23.88-54.36" transform="translate(-105.22 -59.44)"/><path class="cls-1" d="M756.48,657.6c13.3-120.2-25.54-172.82-80.69-209.72" transform="translate(-105.22 -59.44)"/><path class="cls-1" d="M759.06,643.56c22.38,39.07,19.41,75.6-4.5,110-8.7-29.75-2.33-51.68,17.28-66.72" transform="translate(-105.22 -59.44)"/><path class="cls-1" d="M774.27,697l-1.71,51.12C791,729.6,789.12,716.4,787.2,678.72c8.72,6.59,15.29,16.4,19.2,30.24l6.72-19.2,7,11-4.56-21.11c-33.6-20.89-41.27-39.06-37.76-69.6" transform="translate(-105.22 -59.44)"/><path class="cls-1" d="M755.09,565.32c11.95,55.56,58.39,53.4,77.47,117.84,8.76-31.72-4.68-45.8-10.8-52.2l24.12,18c-1.8-55.08-68.23-19.82-69.48-104,4.56-19.5-5.4-39.35-23.4-59.4" transform="translate(-105.22 -59.44)"/><path class="cls-1" d="M778.5,537.45c12.24,31.22,31.72,46.79,62.22,48.87,0-13-15.83-23-32.79-34.25-11.44-7.58-23.4-15.74-31.37-25.78,17.36,20.91,47.84-6.45,64.16,27.15-17.61,3.63-26.25,1.83-38.84-5.43" transform="translate(-105.22 -59.44)"/><path class="cls-1" d="M388.29,171.36c-39.35,17.46-75.81,107.86-89.62,181.77" transform="translate(-105.22 -59.44)"/><path class="cls-1" d="M298.67,190.54c-.81,58.08-.53,116.23-.87,174.32-.1,15.74-.18,31.59,2.78,47.05,8.48,44.26,39,75.31,49.19,119.2" transform="translate(-105.22 -59.44)"/><path class="cls-1" d="M347.6,333.09c-14.93,64.5-62.85,117.23-46.2,187.43,6.05,25.47,24.9,56.85,49.11,68.72,2.7-19.74.12-41.65,0-61.62q-.23-32.22-.6-64.44c-.81-69.88-2-139.74-3-209.62-.4-29.1,1.7-59.52-1.42-88.44" transform="translate(-105.22 -59.44)"/><path class="cls-1" d="M268.08,125.52c16.14,13.5,27.57,43.57,30.59,65,15.16-35.43,30.18-66.14,44.81-83.5" transform="translate(-105.22 -59.44)"/><path class="cls-1" d="M271.68,375.22c-19.56,124.7,30.64,182.66,76.68,212.39" transform="translate(-105.22 -59.44)"/><path class="cls-1" d="M267.33,392.16c-22.37-39.07-24.26-78.5-.35-112.94,11.54,40,5.46,51.68-14.14,66.72" transform="translate(-105.22 -59.44)"/><path class="cls-1" d="M250.4,335.86s2.92-35.38-6.8-47.8c-18.36,33.16-7,31.22-5,68.9-8.72-6.59-16.38-19.26-20.28-33.1l3,25.8-13.5,5.18c3.61-1.39,16.76,9.73,19.53,12.11a56.36,56.36,0,0,1,13.43,16.62c7,13.43,6.85,24.79,6,39.47" transform="translate(-105.22 -59.44)"/><path class="cls-1" d="M269.59,467.5C262,432.3,231,414.74,210.84,387.79c-8.57-11.47-12.61-24.1-18.63-36.73-7.66,14.8,2.54,41.27,12.29,54.54a.69.69,0,0,1-.93,1L176.74,387.2a32.73,32.73,0,0,0,10.1,25.62c9.19,8.64,22.44,11.14,33.4,17.38a55.06,55.06,0,0,1,27,40.55c1.08,8.89,0,17.9.49,26.83a73.22,73.22,0,0,0,24.16,49.48" transform="translate(-105.22 -59.44)"/><path class="cls-1" d="M247.19,497.86c-15.83-36.46-34.65-47.3-65.15-49.38,0,13,19.8,29,34.7,32.27,13.42,2.92,24,14.79,31.95,24.84-17.35-20.92-47.21,14.49-64.73-24.75,17.61-3.63,26.48-5.18,39.07,2.07" transform="translate(-105.22 -59.44)"/><path class="cls-1" d="M754.8,384a248.77,248.77,0,0,0-81.33-50.86" transform="translate(-105.22 -59.44)"/><path class="cls-1" d="M724.45,335.69c23.17,20.83,48.92,23.19,82.91,4.87l24.48,15.84L821,358.57l4.8,5c-12.07-2.87-23.71-4.62-32.88,0,57.12,20.4,40.8,34.32,49.68,43-29-7-50.2-23-51.84-24.72,24.56,13,42.32,28.83,52.92,47.52-26.46-4.68-48.33-14.57-52.92-47.52-12.45-8.89-27.41-13.42-50.38-12.1" transform="translate(-105.22 -59.44)"/><path class="cls-1" d="M642.48,289.28a103.28,103.28,0,0,0,22.28-3.59q30.56-8.65,43.72-37.05c-32.88-2.4-30.72,20-47.52,36.24" transform="translate(-105.22 -59.44)"/><path class="cls-1" d="M664.8,295.68c29.41.9,56.05-1.94,67.68-25-13.67-5.31-31.09-1.88-51.37,8.24" transform="translate(-105.22 -59.44)"/><path class="cls-1" d="M912,505.92,648,350.4c-43-25.35-83.38-31.51-119.52-7.68L897.6,551.22" transform="translate(-105.22 -59.44)"/><path class="cls-1" d="M762.9,475.14c-32.76-28-51.11-76.95-96.47-113.43" transform="translate(-105.22 -59.44)"/><path class="cls-1" d="M765.24,419.94c26,21.09,46.8,56.94,73.08,92.06,24.15,21.79,38.51,46.27,33.48,76.12" transform="translate(-105.22 -59.44)"/><path class="cls-1" d="M529.48,342.1c37-23.37,78.3-24,122.36-18.1,69.84,35.28,69-12,170.88,3.76-15.19-14.76-33-23.64-57-18.48a.19.19,0,0,1-.14-.36L792,294.72c-41.28-24.48-60,54.24-123.36,4.8-17.48-10.86-37.8-12.76-60.48-7.2" transform="translate(-105.22 -59.44)"/><path class="cls-1" d="M506.67,790.8c30.64-9.26,58.87-25.75,84.68-46.53" transform="translate(-105.22 -59.44)"/><path class="cls-1" d="M566.24,786.29c-29.63,9.66-40.73,24.23-41.84,62.83L506.67,861.6,505,855.36l-2.16-5.28c8.52-9,5.42-13.26,6-23.51-47,36.47-58.24,23.25-70.17,26.63,20.54-21.68,47.3-30.49,49.61-31.05-23.55,14.77-40.75,15.12-62.24,15,22.47-18.47,33.72-28,64.56-15.52,16.11-9.2,23.08-15.73,35.76-35.6" transform="translate(-105.22 -59.44)"/><path class="cls-1" d="M644.55,735.42c-3.62,7.23-6,18.17-7.75,25q-7.74,30.78,10.27,56.38c18.5-27.29-4-43.68-9.63-66.33" transform="translate(-105.22 -59.44)"/><path class="cls-1" d="M629,753.6c-15.47,25-27.17,51.4-13,73,11.43-9.19,17.16-26,18.52-48.62" transform="translate(-105.22 -59.44)"/><path class="cls-1" d="M322.53,864.63l266.59-151c43.52-28.39,68.93-56.51,66.34-99.71l-365,215.65" transform="translate(-105.22 -59.44)"/><path class="cls-1" d="M403,763c40.65-14.38,88-4,142.31-25.08" transform="translate(-105.22 -59.44)"/><path class="cls-1" d="M271.39,788.75" transform="translate(-105.22 -59.44)"/><path class="cls-1" d="M654.35,616.34c1.78,43.69-17.18,78.52-44.28,113.76-65.45,42.88-21.44,69.78-92.15,150.22,20-5.69,40.11-26.12,48-49a.3.3,0,0,1,.59.12L564,861.36c45.91-25.2-15.59-74.28,58.89-104.48,23.91-15.76,29.93-35.87,36.44-58.3" transform="translate(-105.22 -59.44)"/><path class="cls-1" d="M273.84,788.75c30.81,21.47,74.37,32.06,163.18,10" transform="translate(-105.22 -59.44)"/><path class="cls-1" d="M266.4,648.72c23,22.24,50.93,36,81.65,48.38" transform="translate(-105.22 -59.44)"/><path class="cls-1" d="M384,741.37c-8.07.36-21.06,1.46-27.87,3.29q-30.66,8.25-44.21,36.46c32.84,2.84,31-19.61,48-35.6" transform="translate(-105.22 -59.44)"/><path class="cls-1" d="M362.94,734.4c-29.4-1.3-62.78,1.47-74.73,24.32,13.6,5.49,31.06,2.3,51.48-7.55" transform="translate(-105.22 -59.44)"/><path class="cls-1" d="M112.06,527.24,345.9,664.68c22.57,13.26,45.5,26.68,70.82,33.33s53.77,5.77,75.86-8.28Q309,585.92,125.35,482" transform="translate(-105.22 -59.44)"/><path class="cls-1" d="M260.54,558.82c32.38,28.46,50.83,73.64,95.7,110.73" transform="translate(-105.22 -59.44)"/><path class="cls-1" d="M256.33,611.73c-25.66-21.43-48-64.05-77.22-98.65-23.85-22.1-28.53-39.8-27-66.85" transform="translate(-105.22 -59.44)"/><path class="cls-1" d="M490.83,691c-37.28,22.87-86.43,24.17-121.27,15.5-69.36-36.21-69.15,15.38-170.81-1.77C214,720,233.22,727.89,258,722.4l-29,11.53c47.7,27.44,56-53.65,127.2-4.33,17.33,11.1,33.84,14.45,56.59,9.19" transform="translate(-105.22 -59.44)"/><path class="cls-1" d="M298.32,694.68c-23-17-49.16-21.41-81.72,0L192.12,677.4l6.63-1.8L195,667c12.07,7.52,25,7.68,38.52,2.59-7.92-15.91-40,0-51.12-43.27l28.08,10.44c-3.08-9.47-4.87-18.7-4.68-27.36,24.84,12.36,21.84,31.2,28.68,42.66,13.22,8.09,25.32,14.7,43.13,8.57" transform="translate(-105.22 -59.44)"/><path class="cls-1" d="M234.48,652C215.64,646.08,195,625,182.4,600.12c9,6.71,18.27,13.75,23,15.12" transform="translate(-105.22 -59.44)"/><path class="cls-1" d="M517.68,241.07c-30.44,9.91-60.2,24.74-85.55,46.07" transform="translate(-105.22 -59.44)"/><path class="cls-1" d="M380.33,295.46c3.46-7.3,4.43-16.61,6-23.49,4.72-20.63,1.87-38.05-10.53-54.84-17.91,27.68,3.12,31.85,9.26,54.38" transform="translate(-105.22 -59.44)"/><path class="cls-1" d="M395.88,276.83c14.93-25.36,26.65-50.17,12.06-71.44-11.23,9.44-18.77,26.36-19.65,49" transform="translate(-105.22 -59.44)"/><path class="cls-1" d="M716.64,150.24,435,317.77c-42.91,25.56-70.81,57.06-67.29,100.2L743,189.12" transform="translate(-105.22 -59.44)"/><path class="cls-2" d="M367.75,415.44c0-21.82,6.15-43.16,15.21-62.87,8.25-17.95,18.45-38.52,33.31-51.92,3.68-3.33,7.74-6.21,11.53-9.41a90,90,0,0,0,25.39-35.42c4.14-10.41,5.75-21.51,9.76-32,9.35-24.47,25-46,42-65.67-20.64,6.34-40.51,14.66-47.28,39.12l1.2-31.2c-41.31,24.43,15.26,77.34-58.55,109.14-17.93,10.1-29.36,34.38-35.39,56.94" transform="translate(-105.22 -59.44)"/><path class="cls-1" d="M458.11,245.05c29-8.08,47.73-27.69,53.89-69.85h14.56c-5.24,10-9.58,19.63-6.48,27,15.12-11.16,36-34.63,60.12-27-1.8,16.92-70.7,40.23-79.8,70.61" transform="translate(-105.22 -59.44)"/><path class="cls-1" d="M538.26,209.76c25.39,8.41,43.38,4.1,56.7-18-14.76,7.2-34.39,2.71-42,7.45" transform="translate(-105.22 -59.44)"/><path class="cls-1" d="M547.38,307.58c31.7-28.63,55.12-71.13,86.46-107.06" transform="translate(-105.22 -59.44)"/><path class="cls-1" d="M551.53,248.46c95-45,159.82-43,205.91-11.82" transform="translate(-105.22 -59.44)"/><path class="cls-3" d="M343.48,98.64,353,89c-.23-20.51,13.1-27.21,31.2-29-1,16.51-6.17,30.07-24.48,34.08l-8,13Z" transform="translate(-105.22 -59.44)"/><path class="cls-3" d="M340.61,96.72q11.07-19-5-30.24Q321.46,85.44,340.61,96.72Z" transform="translate(-105.22 -59.44)"/><path class="cls-3" d="M347.72,121q18.87,11.2,30.28-4.78Q359.16,101.91,347.72,121Z" transform="translate(-105.22 -59.44)"/><path class="cls-4" d="M718.55,139.26c-.46-28.94,14.45-40.72,37.37-43.57C755.28,120.47,745.47,137.29,718.55,139.26Z" transform="translate(-105.22 -59.44)"/><path class="cls-4" d="M667.49,165.19c-12.07-26.3-3.16-43.09,16.68-54.92C693.55,133.21,691.34,152.55,667.49,165.19Z" transform="translate(-105.22 -59.44)"/><path class="cls-4" d="M729.83,147.74C753.46,131,771.6,136.68,786.89,154,766.08,167.46,746.66,168.85,729.83,147.74Z" transform="translate(-105.22 -59.44)"/><path class="cls-4" d="M753.77,909.38c21.43,19.45,19.84,38.38,6.24,57.06C742.37,949,736.8,930.37,753.77,909.38Z" transform="translate(-105.22 -59.44)"/><path class="cls-4" d="M760.38,901.1c21.94-8.09,34.91.13,43.21,16.84C784.53,924.08,769.08,921.1,760.38,901.1Z" transform="translate(-105.22 -59.44)"/></svg>